<svg xmlns="http://www.w3.org/2000/svg" width="240" height="240" viewBox="0 0 240 240" role="img" aria-label="BuddyBoard logo">
  <defs>
    <linearGradient id="g" x1="0" x2="1" y1="0" y2="1">
      <stop offset="0" stop-color="#22c55e" stop-opacity="0.95" />
      <stop offset="1" stop-color="#60a5fa" stop-opacity="0.95" />
    </linearGradient>
    <filter id="shadow" x="-20%" y="-20%" width="140%" height="140%">
      <feDropShadow dx="0" dy="10" stdDeviation="10" flood-color="#000" flood-opacity="0.35" />
    </filter>
  </defs>

  <circle cx="120" cy="120" r="104" fill="url(#g)" filter="url(#shadow)" />
  <circle cx="120" cy="120" r="92" fill="rgba(11,18,32,0.22)" />

  <!-- Simple "BB" monogram -->
  <g fill="#e5e7eb">
    <path d="M78 74h46c18 0 31 10 31 26 0 10-5 18-13 22 11 4 18 13 18 26 0 20-15 32-38 32H78V74zm20 18v28h24c8 0 13-6 13-14 0-9-5-14-13-14H98zm0 44v30h27c10 0 16-6 16-15 0-9-6-15-16-15H98z" />
  </g>

  <g fill="rgba(229,231,235,0.75)">
    <path d="M72 178c18 14 33 20 48 20s30-6 48-20l-9-10c-15 11-26 16-39 16s-24-5-39-16l-9 10z" />
  </g>
</svg>
